<?xml version="1.0" encoding="utf-8"?>
<!-- Uploaded to: SVG Repo, www.svgrepo.com, Generator: SVG Repo Mixer Tools -->
<svg xmlns="http://www.w3.org/2000/svg" xmlns:xlink="http://www.w3.org/1999/xlink" version="1.1" id="rockfall"  viewBox="0 0 228.0371 217.1683" enable-background="new 0 0 228.0371 217.1683" xml:space="preserve" width="512" height="512">
<g>
	<circle fill="#D0E8FF" cx="178" cy="159.1683" r="6"/>
	<circle fill="#D0E8FF" cx="140" cy="97.1683" r="4"/>
	<circle fill="#D0E8FF" cx="186" cy="123.1683" r="6"/>
	<path fill="#D0E8FF" d="M204,197.1683c4.4121,0,8-3.5898,8-8s-3.5879-8-8-8s-8,3.5898-8,8S199.5879,197.1683,204,197.1683z"/>
	<path fill="#D0E8FF" d="M103.9199,85.7699l-8.1133,9.0039c-0.8516,0.9453-2.1172,1.4102-3.3594,1.3047   c-1.2637-0.1211-2.3926-0.8359-3.0449-1.9258L68.2051,58.7426L22.6484,208.9379h130.0859L103.9199,85.7699z"/>
	<path fill="#1C71DA" d="M188,189.1683c0,8.8242,7.1777,16,16,16s16-7.1758,16-16s-7.1777-16-16-16S188,180.3441,188,189.1683z    M204,181.1683c4.4121,0,8,3.5898,8,8s-3.5879,8-8,8s-8-3.5898-8-8S199.5879,181.1683,204,181.1683z"/>
	<path fill="#1C71DA" d="M186,137.1683c7.7188,0,14-6.2812,14-14s-6.2812-14-14-14s-14,6.2812-14,14S178.2812,137.1683,186,137.1683   z M186,117.1683c3.3086,0,6,2.6914,6,6s-2.6914,6-6,6s-6-2.6914-6-6S182.6914,117.1683,186,117.1683z"/>
	<path fill="#1C71DA" d="M140,109.1683c6.6172,0,12-5.3828,12-12s-5.3828-12-12-12s-12,5.3828-12,12S133.3828,109.1683,140,109.1683   z M140,93.1683c2.2051,0,4,1.793,4,4s-1.7949,4-4,4s-4-1.793-4-4S137.7949,93.1683,140,93.1683z"/>
	<path fill="#1C71DA" d="M178,173.1683c7.7188,0,14-6.2812,14-14s-6.2812-14-14-14s-14,6.2812-14,14S170.2812,173.1683,178,173.1683   z M178,153.1683c3.3086,0,6,2.6914,6,6s-2.6914,6-6,6s-6-2.6914-6-6S174.6914,153.1683,178,153.1683z"/>
	<path fill="#1C71DA" d="M161.4314,209.1683l-52.449-132.3398c-0.5098-1.2891-1.6484-2.2188-3.0098-2.4648   c-1.3652-0.2422-2.7559,0.2344-3.6816,1.2617l-8.8047,9.7734L70.4297,46.8832c-0.8145-1.3594-2.3633-2.0898-3.9199-1.9141   c-1.5703,0.1914-2.8809,1.293-3.3398,2.8086L14.2192,209.1683H0v8h228.0371v-8H161.4314z M68.2051,58.7426l21.1973,35.4102   c0.6523,1.0898,1.7812,1.8047,3.0449,1.9258c1.2422,0.1055,2.5078-0.3594,3.3594-1.3047l8.1133-9.0039l48.8145,123.168H22.6484   L68.2051,58.7426z"/>
</g>
<path fill="#FF5D5D" d="M180.3854,88c-1.0239,0-2.0474-0.3906-2.8286-1.1719c-1.562-1.5615-1.562-4.0947,0-5.6562l14.1421-14.1416  c1.5635-1.5625,4.0957-1.5615,5.6572,0c1.562,1.5615,1.562,4.0947,0,5.6562L183.214,86.8281  C182.4328,87.6094,181.4088,88,180.3854,88z"/>
<path fill="#FF5D5D" d="M194.5275,88.001c-1.0239,0-2.0474-0.3906-2.8286-1.1719l-14.1421-14.1426  c-1.562-1.5615-1.562-4.0947,0-5.6562c1.5635-1.5625,4.0957-1.5615,5.6572,0l14.1421,14.1426c1.562,1.5615,1.562,4.0947,0,5.6562  C196.5748,87.6104,195.5509,88.001,194.5275,88.001z"/>
<path fill="#00D40B" d="M142.3854,28c-7.7197,0-14-6.2803-14-14s6.2803-14,14-14s14,6.2803,14,14S150.1051,28,142.3854,28z   M142.3854,8c-3.3086,0-6,2.6914-6,6s2.6914,6,6,6s6-2.6914,6-6S145.694,8,142.3854,8z"/>
<path fill="#FFC504" d="M35.6989,50.6279L35.6989,50.6279c-1.061,0-2.0786-0.4219-2.8286-1.1719L21.5568,38.1416  c-1.562-1.5615-1.562-4.0947,0-5.6562l11.3135-11.3135c1.5625-1.5625,4.0952-1.5625,5.6567,0l11.314,11.3135  c0.7505,0.75,1.1719,1.7676,1.1719,2.8281s-0.4214,2.0781-1.1714,2.8281l-11.314,11.3145  C37.7775,50.2061,36.7599,50.6279,35.6989,50.6279z M30.0421,35.3135l5.6567,5.6572l5.6572-5.6572l-5.6572-5.6562L30.0421,35.3135z"/>
</svg>