<?xml version="1.0" encoding="iso-8859-1"?>
<!-- Uploaded to: SVG Repo, www.svgrepo.com, Generator: SVG Repo Mixer Tools -->
<svg version="1.1" id="Layer_1" xmlns="http://www.w3.org/2000/svg" xmlns:xlink="http://www.w3.org/1999/xlink" 
	 viewBox="0 0 512 512" xml:space="preserve">
<rect x="92.787" style="fill:#67BFFF;" width="326.426" height="512"/>
<rect x="255.049" style="fill:#0088FF;" width="164.164" height="512"/>
<rect x="123.402" y="50.124" style="fill:#FFFFFF;" width="263.304" height="407.489"/>
<rect x="255.049" y="50.124" style="fill:#D9D8DB;" width="131.657" height="407.489"/>
<rect x="244.861" y="476.212" style="fill:#57555C;" width="20.376" height="20.376"/>
<rect x="255.049" y="476.212" style="fill:#3C3A41;" width="10.188" height="20.376"/>
<rect x="240.327" y="138.355" style="fill:#57555C;" width="31.347" height="52.982"/>
<g>
	
		<rect x="286.149" y="150.63" transform="matrix(-0.8658 -0.5003 0.5003 -0.8658 474.5338 481.4854)" style="fill:#3C3A41;" width="31.346" height="52.979"/>
	
		<rect x="319.67" y="184.201" transform="matrix(-0.4993 -0.8664 0.8664 -0.4993 320.2368 606.4395)" style="fill:#3C3A41;" width="31.346" height="52.98"/>
	
		<rect x="321.101" y="240.866" transform="matrix(-1 -0.0012 0.0012 -1 694.8748 513.4957)" style="fill:#3C3A41;" width="52.982" height="31.347"/>
	
		<rect x="308.743" y="286.668" transform="matrix(-0.8652 -0.5014 0.5014 -0.8652 473.6861 732.0182)" style="fill:#3C3A41;" width="52.981" height="31.347"/>
	
		<rect x="275.163" y="320.17" transform="matrix(-0.4983 -0.867 0.867 -0.4983 160.7904 764.7294)" style="fill:#3C3A41;" width="52.981" height="31.347"/>
</g>
<polygon style="fill:#57555C;" points="271.517,321.558 271.391,374.545 255.049,374.503 240.044,374.461 240.17,321.485 
	255.049,321.516 "/>
<rect x="255.049" y="138.355" style="fill:#3C3A41;" width="16.619" height="52.982"/>
<g>
	
		<rect x="194.299" y="309.125" transform="matrix(-0.8646 -0.5025 0.5025 -0.8646 222.8676 731.2948)" style="fill:#57555C;" width="31.348" height="52.984"/>
	
		<rect x="160.875" y="275.467" transform="matrix(-0.4972 -0.8676 0.8676 -0.4972 2.3446 605.2723)" style="fill:#57555C;" width="31.346" height="52.98"/>
	
		<rect x="137.938" y="240.416" transform="matrix(-1 -0.0036 0.0036 -1 327.9339 512.7689)" style="fill:#57555C;" width="52.982" height="31.347"/>
	
		<rect x="150.386" y="194.644" transform="matrix(-0.864 -0.5035 0.5035 -0.864 223.8038 481.0887)" style="fill:#57555C;" width="52.982" height="31.347"/>
	
		<rect x="184.074" y="161.226" transform="matrix(-0.4961 -0.8682 0.8682 -0.4961 161.4369 447.4847)" style="fill:#57555C;" width="52.979" height="31.345"/>
</g>
<polygon style="fill:#3C3A41;" points="271.517,321.558 271.391,374.545 255.049,374.503 255.049,321.516 "/>
</svg>